<?xml version="1.0" standalone="no"?>
<!DOCTYPE svg PUBLIC "-//W3C//DTD SVG 20010904//EN"
 "http://www.w3.org/TR/2001/REC-SVG-20010904/DTD/svg10.dtd">
<svg version="1.0" xmlns="http://www.w3.org/2000/svg"
 width="16.000000pt" height="16.000000pt" viewBox="0 0 16.000000 16.000000"
 preserveAspectRatio="xMidYMid meet">
<metadata>
Created by potrace 1.11, written by Peter Selinger 2001-2013
</metadata>
<g transform="translate(0.000000,16.000000) scale(0.000768,-0.000768)"
fill="#000000" stroke="none">
<path d="M462 17676 c-4 -7 -7 -14868 -3 -14921 1 -7 3327 -10 9959 -10 l9957
0 0 617 c0 339 -3 620 -7 624 -5 4 -4205 8 -9335 8 l-9328 1 0 6845 0 6845
-618 0 c-361 0 -621 -4 -625 -9z"/>
<path d="M6985 16029 c-176 -226 -324 -417 -330 -423 -5 -6 -23 -29 -40 -51
-16 -22 -35 -47 -42 -55 -12 -15 -324 -416 -373 -479 -14 -18 -34 -45 -46 -59
-17 -22 -532 -684 -623 -801 -14 -19 -35 -46 -47 -60 -11 -14 -43 -55 -71 -91
-44 -58 -606 -781 -625 -805 -59 -73 -466 -598 -493 -634 -21 -29 -712 -916
-732 -941 -13 -15 -108 -137 -343 -441 -73 -96 -136 -176 -140 -179 -3 -3 -34
-42 -68 -88 l-64 -83 1 -2762 c0 -1519 0 -2780 0 -2803 l1 -41 8091 0 8090 0
-5 21 c-3 12 -51 179 -106 371 -56 193 -103 357 -105 365 -2 8 -67 238 -145
510 -78 272 -166 581 -196 685 -29 105 -234 820 -454 1590 -221 770 -403 1407
-405 1415 -4 20 -294 1036 -345 1210 -22 74 -143 500 -270 945 -128 446 -274
959 -326 1140 -52 182 -97 339 -99 349 -4 16 -16 59 -31 104 -3 12 -59 -28
-130 -93 -6 -5 -30 -26 -54 -45 -24 -19 -118 -97 -209 -173 -91 -77 -175 -146
-186 -155 -54 -45 -141 -118 -145 -122 -3 -3 -30 -25 -60 -50 -30 -25 -66 -55
-80 -67 -20 -17 -321 -267 -628 -522 -24 -20 -49 -41 -55 -46 -7 -6 -66 -56
-132 -110 -66 -55 -122 -102 -125 -105 -4 -4 -468 -390 -555 -461 -11 -10 -41
-34 -66 -55 -65 -55 -116 -98 -364 -304 -121 -100 -233 -194 -250 -209 -16
-14 -66 -55 -110 -91 -44 -36 -82 -68 -85 -71 -3 -3 -77 -65 -165 -138 -88
-73 -182 -151 -209 -174 -27 -23 -68 -57 -90 -74 l-41 -33 -2800 2801 -2801
2800 -319 -412z"/>
</g>
</svg>
